<?xml version="1.0" encoding="UTF-8"?>
<svg width="160px" height="30px" viewBox="0 0 160 30" version="1.1" xmlns="http://www.w3.org/2000/svg" xmlns:xlink="http://www.w3.org/1999/xlink">
    <title>component/atomic/logo-primary</title>
    <g id="Eqaro-New-Interventions" stroke="none" stroke-width="1" fill="none" fill-rule="evenodd">
        <g id="Artboard" transform="translate(-46, -58)" fill="#FFFFFF">
            <g id="component/atomic/logo-primary" transform="translate(46, 58)">
                <path d="M153.93186,16.4567321 C151.776306,15.6993371 150.350813,15.0789708 149.642344,14.5894046 C148.931023,14.1014994 148.45518,13.2452776 148.224999,12.0170021 C147.995632,10.7870657 148.305257,9.58411977 149.149797,8.41314721 C150.002078,7.24134416 151.449979,6.62637595 153.503275,6.57239494 C155.554128,6.52754919 157.654683,7.14376312 159.788645,8.41729959 L158.286153,11.280369 C156.500926,10.2057318 154.984582,9.66010841 153.733457,9.64723602 C152.482331,9.63602458 151.776713,10.0338231 151.61905,10.8377248 C151.46383,11.6362284 151.906674,12.2906443 152.967137,12.789761 C154.021488,13.2847253 155.153246,13.7219714 156.362817,14.0844746 C157.569537,14.4511302 158.441373,14.8883763 158.989326,15.3987045 C159.528724,15.9106935 159.855459,16.6581228 159.965864,17.6468057 C160.068122,18.6346581 159.940606,19.5373866 159.583723,20.3637112 C159.223989,21.1871291 158.623481,21.886806 157.782199,22.4623265 C156.938066,23.0320338 155.767198,23.3820798 154.264299,23.5145409 C152.758955,23.6399429 150.746806,23.105531 148.225406,21.9050765 L149.714454,19.026228 C151.522088,19.8135202 153.021728,20.260732 154.211744,20.370355 C155.407464,20.4857913 156.199042,20.0489604 156.580776,19.0669213 C156.968214,18.0844671 156.08497,17.2153729 153.93186,16.4567321 L153.93186,16.4567321 Z M133.377299,7.10542736e-15 L136.67887,7.10542736e-15 L136.67887,15.4061787 L142.858724,6.73350748 L146.805617,6.73350748 L142.064701,13.5571217 L147.090389,23.5710133 L143.287716,23.5710133 L139.819926,16.3325758 L136.67887,20.8412354 L136.67887,23.5705981 L133.377299,23.5705981 L133.377299,7.10542736e-15 L133.377299,7.10542736e-15 Z M128.716641,17.7601658 L131.561517,19.4979389 C131.207079,20.0734595 130.786642,20.6008124 130.302243,21.0945309 C128.685679,22.7446887 126.73464,23.5714286 124.454421,23.5714286 C122.179498,23.5714286 120.228459,22.7500868 118.614747,21.1057424 C117.003886,19.4626436 116.195604,17.4753122 116.195604,15.1537137 C116.195604,12.8308696 117.003479,10.8493515 118.614747,9.20625274 C120.228459,7.55734066 122.179498,6.73350748 124.454421,6.73350748 C126.735047,6.73350748 128.686086,7.55734066 130.302243,9.19462606 C130.786234,9.70080179 131.207079,10.2397814 131.561517,10.8082429 L128.716641,12.544355 C128.511719,12.2059356 128.257094,11.8886934 127.95847,11.5839084 C126.989672,10.5968865 125.821656,10.1015069 124.454421,10.1015069 C123.092482,10.1015069 121.924873,10.5964712 120.956075,11.5839084 C119.984426,12.5725912 119.500435,13.76308 119.500435,15.1537137 C119.500435,16.5443475 119.984426,17.7335905 120.956075,18.7222734 C121.924873,19.7109563 123.092482,20.2042596 124.454421,20.2042596 C125.821248,20.2042596 126.989672,19.7109563 127.95847,18.7222734 C128.257094,18.4228864 128.511719,18.1010766 128.716641,17.7601658 L128.716641,17.7601658 Z M111.242026,6.73309224 L114.543597,6.73309224 L114.543597,23.5705981 L111.242026,23.5705981 L111.242026,6.73309224 L111.242026,6.73309224 Z M111.242026,7.10542736e-15 L114.543597,7.10542736e-15 L114.543597,3.36509279 L111.242026,3.36509279 L111.242026,7.10542736e-15 L111.242026,7.10542736e-15 Z M109.590018,10.1015069 C108.225227,10.1015069 107.057619,10.5964712 106.088821,11.5839084 C105.120023,12.5725912 104.63318,13.76308 104.63318,15.1537137 L104.63318,23.5710133 L101.331609,23.5710133 L101.331609,6.73309224 L104.63318,6.73309224 L104.63318,8.40027481 C106.055414,7.29158802 107.707829,6.73309224 109.590018,6.73309224 L109.590018,10.1015069 L109.590018,10.1015069 Z M91.4179333,10.1015069 C90.0531427,10.1015069 88.8883856,10.5964712 87.919588,11.5839084 C86.9479386,12.5725912 86.4639472,13.76308 86.4639472,15.1537137 C86.4639472,16.5443475 86.9479386,17.7335905 87.919588,18.7222734 C88.8883856,19.7109563 90.0531427,20.2042596 91.4179333,20.2042596 C92.7823165,20.2042596 93.9499253,19.7109563 94.9215748,18.7222734 C95.8903724,17.7335905 96.3743638,16.5443475 96.3743638,15.1537137 C96.3743638,13.76308 95.8903724,12.5725912 94.9215748,11.5839084 C93.9499253,10.5964712 92.7823165,10.1015069 91.4179333,10.1015069 L91.4179333,10.1015069 Z M86.4639472,23.5710133 L83.1578947,23.5710133 L83.1578947,7.10542736e-15 L86.4639472,7.10542736e-15 L86.4639472,8.40027481 C87.8833294,7.29158802 89.5357445,6.73309224 91.4179333,6.73309224 C93.6957076,6.73309224 95.6410435,7.55692542 97.2514964,9.2058375 C98.8709121,10.8489362 99.6759348,12.8304543 99.6759348,15.1532985 C99.6759348,17.4748969 98.8705047,19.4622284 97.2514964,21.1053271 C95.6410435,22.7496716 93.6953002,23.5710133 91.4179333,23.5710133 C89.5357445,23.5710133 87.8833294,23.015009 86.4639472,21.9050765 L86.4639472,23.5710133 L86.4639472,23.5710133 Z M47.4832708,11.4676624 C46.516616,12.4464237 46.034505,13.6249657 46.034505,15.0016443 C46.034505,16.3783228 46.516616,17.5556317 47.4832708,18.534393 C48.4462764,19.5119211 49.6083707,20.0015073 50.9679318,20.0015073 C52.3230328,20.0015073 53.4855325,19.5119211 54.4493491,18.534393 C55.4164094,17.5556317 55.8981149,16.3783228 55.8981149,15.0016443 C55.8981149,13.6249657 55.4164094,12.4464237 54.4493491,11.4676624 C53.4855325,10.4889011 52.3230328,10.000137 50.9679318,10.000137 C49.6083707,10.000137 48.4462764,10.4889011 47.4832708,11.4676624 Z M81.0526316,19.3018635 C80.7014893,19.8716087 80.2842545,20.3936695 79.8021435,20.8824335 C78.1907817,22.5160318 76.2513899,23.3344752 73.9843734,23.3344752 C71.7161404,23.3344752 69.7755322,22.5213757 68.1698471,20.8935325 C66.5653784,19.2669224 65.7621304,17.2983009 65.7621304,15.0012332 C65.7621304,12.7029323 66.5649729,10.7384215 68.1698471,9.11345574 C69.7755322,7.4798575 71.7165459,6.6655248 73.9843734,6.6655248 C76.2513899,6.6655248 78.1907817,7.47944642 79.8021435,9.10194574 C80.2842545,9.60304193 80.7014893,10.1366128 81.0526316,10.6993697 L78.2264636,12.4180597 C78.0184544,12.0830364 77.7662483,11.7689778 77.4690344,11.4672513 C76.5023795,10.48849 75.3398798,9.99972595 73.9843734,9.99972595 C72.6252177,9.99972595 71.4639344,10.48849 70.4972795,11.4672513 C69.5346794,12.4460126 69.051352,13.6245547 69.051352,15.0012332 C69.051352,16.3779118 69.5346794,17.5552206 70.4972795,18.5339819 C71.4639344,19.51151 72.6252177,20.0010962 73.9843734,20.0010962 C75.3398798,20.0010962 76.5019741,19.51151 77.4690344,18.5339819 C77.7662483,18.2380104 78.0184544,17.91943 78.2264636,17.5844067 L81.0526316,19.3018635 Z M64.119547,6.6655248 L64.119547,23.3340641 L60.8319473,23.3340641 L60.8319473,6.6655248 L64.119547,6.6655248 Z M64.119547,7.10542736e-15 L64.119547,3.33132365 L60.8319473,3.33132365 L60.8319473,7.10542736e-15 L64.119547,7.10542736e-15 Z M47.4832708,25.1982735 C48.4462764,26.1770348 49.6083707,26.6682653 50.9679318,26.6682653 L51.0259149,26.6670321 L51.0891692,26.6670321 L51.1195799,26.6641546 L51.1499906,26.6641546 L51.1556673,26.6641546 L51.1804013,26.6629213 L51.1889163,26.6629213 L51.219327,26.6629213 L51.2428446,26.6612771 L51.2732553,26.6583996 L51.2829867,26.6583996 L51.3928707,26.6514113 L51.4038186,26.6485338 L51.422876,26.6485338 L51.4532867,26.6456563 L51.5112697,26.6399013 L51.5278942,26.6370238 L51.5416804,26.6370238 L51.5720911,26.6329131 L51.676704,26.6201699 L51.6990051,26.6144149 L51.7403637,26.6086599 L51.7488787,26.6086599 L51.7707744,26.6061935 L51.7776675,26.6029049 L51.8064563,26.5987942 L51.8149713,26.597561 L51.8644394,26.5889285 L51.8895789,26.5848178 L51.9228279,26.5774185 L51.9280991,26.5774185 L52.0355502,26.5564538 L52.0412269,26.5548095 C52.2257185,26.5157577 52.4061553,26.465607 52.581321,26.4043574 L52.5963236,26.3986024 L52.59754,26.3986024 L52.7037747,26.3595506 L52.8014945,26.3200877 L52.809604,26.3172102 C53.4088976,26.0726226 53.9571012,25.7001918 54.4513764,25.1999178 C55.4184368,24.2199233 55.9001423,23.0475473 55.9001423,21.684023 C54.48422,22.781584 52.8424475,23.3320088 50.9695538,23.3320088 C48.7013208,23.3320088 46.7578742,22.5189093 45.154622,20.891066 C43.5501533,19.264456 42.7460943,17.2958345 42.7460943,14.9987668 C42.7460943,12.7004659 43.5501533,10.7359551 45.154622,9.11098931 C46.7578742,7.47739107 48.7013208,6.66305837 50.9695538,6.66305837 C52.8424475,6.66305837 54.48422,7.21594958 55.9001423,8.31351055 L55.9001423,6.66305837 L59.187742,6.66305837 L59.187742,21.6647027 C59.187742,23.9630036 58.3861159,25.9328583 56.776376,27.5594683 C55.626446,28.7244451 54.3013503,29.4725952 52.809604,29.8051521 L52.7820316,29.8109071 L52.7544592,29.8166621 L52.7268869,29.822006 L52.7033693,29.827761 L52.6798517,29.833516 L52.6701202,29.833516 L52.6441698,29.839271 L52.6165974,29.845026 L52.6040276,29.8479035 L52.589025,29.850781 L52.5861867,29.850781 C52.0683938,29.9498493 51.5270833,30 50.9691483,30 C48.7009153,30 46.7574687,29.1860784 45.1542165,27.5602905 C43.9422486,26.3320088 43.1888742,24.9047684 42.8928767,23.2937791 L46.2907658,23.2937791 C46.525131,23.9963004 46.9229029,24.6330502 47.4832708,25.1982735 Z M29.395796,11.4676624 C28.4303575,12.4464237 27.9482465,13.6249657 27.9482465,15.0016443 C27.9482465,16.3783228 28.4303575,17.5556317 29.395796,18.534393 C30.3612344,19.5119211 31.5237342,20.0015073 32.880457,20.0015073 C34.2400181,20.0015073 35.3992741,19.5119211 36.3663344,18.534393 C37.3305564,17.5556317 37.8138839,16.3783228 37.8138839,15.0016443 C37.8138839,13.6249657 37.3305564,12.4464237 36.3663344,11.4676624 C35.3996796,10.4889011 34.2400181,10.000137 32.880457,10.000137 C31.5237342,10.000137 30.3616399,10.4889011 29.395796,11.4676624 Z M32.880457,23.3344752 C30.6150624,23.3344752 28.6728322,22.5213757 27.0671471,20.8935325 C25.4638949,19.2669224 24.6598359,17.2983009 24.6598359,15.0012332 C24.6598359,12.7029323 25.4638949,10.7384215 27.0671471,9.11345574 C28.6728322,7.4798575 30.6150624,6.6655248 32.880457,6.6655248 C34.7549727,6.6655248 36.399178,7.218416 37.8138839,8.31597698 L37.8138839,6.6655248 L41.1014835,6.6655248 L41.1014835,23.3340641 L37.8138839,23.3340641 L37.8138839,21.6864894 C36.3995835,22.7840504 34.7549727,23.3344752 32.880457,23.3344752 Z M3.28759967,6.6655248 L3.28759967,7.53699644 C4.26560787,6.95615237 5.35755482,6.6655248 6.57641578,6.6655248 C8.39457031,6.6655248 9.9426778,7.32200603 11.2276313,8.61770348 C11.3281894,8.71964922 11.419016,8.81583996 11.5070043,8.91942998 C11.5921543,8.81625103 11.6874412,8.71964922 11.7879992,8.61770348 C13.068898,7.32200603 14.6170055,6.6655248 16.4404312,6.6655248 C18.2585858,6.6655248 19.8066933,7.32200603 21.0928632,8.61770348 C22.3709237,9.92203343 23.0184689,11.4910935 23.0184689,13.3343382 L23.0184689,23.3344752 L19.7292473,23.3344752 L19.7292473,13.3343382 C19.7292473,12.4127158 19.4040556,11.6267471 18.7638089,10.977254 C18.1231568,10.3240614 17.3495085,10.000137 16.4404312,10.000137 C15.531354,10.000137 14.752029,10.3240614 14.1129988,10.977254 C13.4727521,11.6267471 13.1516151,12.4127158 13.1516151,13.3343382 L13.1516151,23.3344752 L9.86401545,23.3344752 L9.86401545,13.3343382 C9.86401545,12.4127158 9.54450034,11.6267471 8.89857702,10.977254 C8.25954679,10.3240614 7.48549304,10.000137 6.57641578,10.000137 C5.66612208,10.000137 4.89369024,10.3240614 4.24898335,10.977254 C3.60873669,11.6267471 3.28759967,12.4127158 3.28759967,13.3343382 L3.28759967,23.3344752 L0,23.3344752 L0,6.6655248 L3.28759967,6.6655248 Z" id="logo"></path>
            </g>
        </g>
    </g>
</svg>